{
	"asset":{
		"generator":"Khronos glTF Blender I/O v5.0.21",
		"version":"2.0"
	},
	"scene":0,
	"scenes":[
		{
			"name":"Scene",
			"nodes":[
				0,
				1
			]
		}
	],
	"nodes":[
		{
			"mesh":0,
			"name":"Cube"
		},
		{
			"mesh":1,
			"name":"Scrat",
			"rotation":[
				0.7071068286895752,
				0,
				0,
				0.7071068286895752
			]
		}
	],
	"materials":[
		{
			"doubleSided":true,
			"name":"Material",
			"pbrMetallicRoughness":{
				"baseColorFactor":[
					0.800000011920929,
					0.800000011920929,
					0.800000011920929,
					1
				],
				"metallicFactor":0,
				"roughnessFactor":0.5
			}
		},
		{
			"doubleSided":true,
			"name":"Material.001",
			"pbrMetallicRoughness":{
				"baseColorTexture":{
					"index":0
				},
				"metallicFactor":0,
				"roughnessFactor":0.5
			}
		},
		{
			"doubleSided":true,
			"name":"Material.002",
			"pbrMetallicRoughness":{
				"baseColorFactor":[
					0.163330078125,
					0.116943359375,
					0.059783935546875,
					1
				],
				"metallicFactor":0,
				"roughnessFactor":0.5
			}
		},
		{
			"doubleSided":true,
			"name":"Material.003",
			"pbrMetallicRoughness":{
				"baseColorFactor":[
					0.800000011920929,
					0.800000011920929,
					0.800000011920929,
					1
				],
				"metallicFactor":0,
				"roughnessFactor":0.5
			}
		},
		{
			"doubleSided":true,
			"name":"Material.004",
			"pbrMetallicRoughness":{
				"baseColorFactor":[
					0.04209134727716446,
					0.02864880859851837,
					0.013872055336833,
					1
				],
				"metallicFactor":0,
				"roughnessFactor":0.5
			}
		}
	],
	"meshes":[
		{
			"name":"Cube",
			"primitives":[
				{
					"attributes":{
						"POSITION":0,
						"NORMAL":1,
						"TEXCOORD_0":2
					},
					"indices":3,
					"material":0
				}
			]
		},
		{
			"name":"Scrat.001",
			"primitives":[
				{
					"attributes":{
						"POSITION":4,
						"NORMAL":5,
						"TEXCOORD_0":6
					},
					"indices":7,
					"material":1
				},
				{
					"attributes":{
						"POSITION":8,
						"NORMAL":9,
						"TEXCOORD_0":10
					},
					"indices":11,
					"material":2
				},
				{
					"attributes":{
						"POSITION":12,
						"NORMAL":13,
						"TEXCOORD_0":14
					},
					"indices":15,
					"material":3
				},
				{
					"attributes":{
						"POSITION":16,
						"NORMAL":17,
						"TEXCOORD_0":18
					},
					"indices":19,
					"material":4
				}
			]
		}
	],
	"textures":[
		{
			"sampler":0,
			"source":0
		}
	],
	"images":[
		{
			"mimeType":"image/jpeg",
			"name":"heye015",
			"uri":"heye015.jpg"
		}
	],
	"accessors":[
		{
			"bufferView":0,
			"componentType":5126,
			"count":24,
			"max":[
				1,
				1,
				1
			],
			"min":[
				-1,
				-1,
				-1
			],
			"type":"VEC3"
		},
		{
			"bufferView":1,
			"componentType":5126,
			"count":24,
			"type":"VEC3"
		},
		{
			"bufferView":2,
			"componentType":5126,
			"count":24,
			"type":"VEC2"
		},
		{
			"bufferView":3,
			"componentType":5123,
			"count":36,
			"type":"SCALAR"
		},
		{
			"bufferView":4,
			"componentType":5126,
			"count":1020,
			"max":[
				19.445999145507812,
				41.72060012817383,
				-103.46009826660156
			],
			"min":[
				-19.445999145507812,
				34.57939910888672,
				-118.23519897460938
			],
			"type":"VEC3"
		},
		{
			"bufferView":5,
			"componentType":5126,
			"count":1020,
			"type":"VEC3"
		},
		{
			"bufferView":6,
			"componentType":5126,
			"count":1020,
			"type":"VEC2"
		},
		{
			"bufferView":7,
			"componentType":5123,
			"count":1452,
			"type":"SCALAR"
		},
		{
			"bufferView":8,
			"componentType":5126,
			"count":8942,
			"max":[
				72.37529754638672,
				79.6270980834961,
				0.6712999939918518
			],
			"min":[
				-72.78289794921875,
				-46.64080047607422,
				-123.37940216064453
			],
			"type":"VEC3"
		},
		{
			"bufferView":9,
			"componentType":5126,
			"count":8942,
			"type":"VEC3"
		},
		{
			"bufferView":10,
			"componentType":5126,
			"count":8942,
			"type":"VEC2"
		},
		{
			"bufferView":11,
			"componentType":5123,
			"count":13314,
			"type":"SCALAR"
		},
		{
			"bufferView":12,
			"componentType":5126,
			"count":504,
			"max":[
				8.063699722290039,
				74.34539794921875,
				-84.93710327148438
			],
			"min":[
				-7.959000110626221,
				71.85060119628906,
				-92.90059661865234
			],
			"type":"VEC3"
		},
		{
			"bufferView":13,
			"componentType":5126,
			"count":504,
			"type":"VEC3"
		},
		{
			"bufferView":14,
			"componentType":5126,
			"count":504,
			"type":"VEC2"
		},
		{
			"bufferView":15,
			"componentType":5123,
			"count":762,
			"type":"SCALAR"
		},
		{
			"bufferView":16,
			"componentType":5126,
			"count":2668,
			"max":[
				77.41819763183594,
				32.344398498535156,
				0.5092999935150146
			],
			"min":[
				-77.41819763183594,
				-95.24189758300781,
				-122.95909881591797
			],
			"type":"VEC3"
		},
		{
			"bufferView":17,
			"componentType":5126,
			"count":2668,
			"type":"VEC3"
		},
		{
			"bufferView":18,
			"componentType":5126,
			"count":2668,
			"type":"VEC2"
		},
		{
			"bufferView":19,
			"componentType":5123,
			"count":4002,
			"type":"SCALAR"
		}
	],
	"bufferViews":[
		{
			"buffer":0,
			"byteLength":288,
			"byteOffset":0,
			"target":34962
		},
		{
			"buffer":0,
			"byteLength":288,
			"byteOffset":288,
			"target":34962
		},
		{
			"buffer":0,
			"byteLength":192,
			"byteOffset":576,
			"target":34962
		},
		{
			"buffer":0,
			"byteLength":72,
			"byteOffset":768,
			"target":34963
		},
		{
			"buffer":0,
			"byteLength":12240,
			"byteOffset":840,
			"target":34962
		},
		{
			"buffer":0,
			"byteLength":12240,
			"byteOffset":13080,
			"target":34962
		},
		{
			"buffer":0,
			"byteLength":8160,
			"byteOffset":25320,
			"target":34962
		},
		{
			"buffer":0,
			"byteLength":2904,
			"byteOffset":33480,
			"target":34963
		},
		{
			"buffer":0,
			"byteLength":107304,
			"byteOffset":36384,
			"target":34962
		},
		{
			"buffer":0,
			"byteLength":107304,
			"byteOffset":143688,
			"target":34962
		},
		{
			"buffer":0,
			"byteLength":71536,
			"byteOffset":250992,
			"target":34962
		},
		{
			"buffer":0,
			"byteLength":26628,
			"byteOffset":322528,
			"target":34963
		},
		{
			"buffer":0,
			"byteLength":6048,
			"byteOffset":349156,
			"target":34962
		},
		{
			"buffer":0,
			"byteLength":6048,
			"byteOffset":355204,
			"target":34962
		},
		{
			"buffer":0,
			"byteLength":4032,
			"byteOffset":361252,
			"target":34962
		},
		{
			"buffer":0,
			"byteLength":1524,
			"byteOffset":365284,
			"target":34963
		},
		{
			"buffer":0,
			"byteLength":32016,
			"byteOffset":366808,
			"target":34962
		},
		{
			"buffer":0,
			"byteLength":32016,
			"byteOffset":398824,
			"target":34962
		},
		{
			"buffer":0,
			"byteLength":21344,
			"byteOffset":430840,
			"target":34962
		},
		{
			"buffer":0,
			"byteLength":8004,
			"byteOffset":452184,
			"target":34963
		}
	],
	"samplers":[
		{
			"magFilter":9729,
			"minFilter":9987
		}
	],
	"buffers":[
		{
			"byteLength":460188,
			"uri":"SCRAT.bin"
		}
	]
}
